<svg xmlns="http://www.w3.org/2000/svg" viewBox="0 0 1600 1200" width="1600" height="1200">
  <defs>
    <radialGradient id="bg" cx="50%" cy="35%" r="75%">
      <stop offset="0%" stop-color="#101927"/>
      <stop offset="58%" stop-color="#06101d"/>
      <stop offset="100%" stop-color="#020509"/>
    </radialGradient>
    <radialGradient id="accent" cx="50%" cy="42%" r="38%">
      <stop offset="0%" stop-color="#3b82f6" stop-opacity="0.2"/>
      <stop offset="100%" stop-color="#3b82f6" stop-opacity="0"/>
    </radialGradient>
    <filter id="glow"><feGaussianBlur stdDeviation="3" result="blur"/><feMerge><feMergeNode in="blur"/><feMergeNode in="SourceGraphic"/></feMerge></filter>
  </defs>
  <rect width="1600" height="1200" fill="url(#bg)"/>
  <rect width="1600" height="1200" fill="url(#accent)"/>
  <g opacity="0.045" stroke="#3b82f6" stroke-width="0.75"><line x1="0" y1="120" x2="1600" y2="120" /><line x1="0" y1="255" x2="1600" y2="255" /><line x1="0" y1="390" x2="1600" y2="390" /><line x1="0" y1="525" x2="1600" y2="525" /><line x1="0" y1="660" x2="1600" y2="660" /><line x1="0" y1="795" x2="1600" y2="795" /><line x1="0" y1="930" x2="1600" y2="930" /><line x1="0" y1="1065" x2="1600" y2="1065" /><line x1="150" y1="0" x2="150" y2="1200" /><line x1="340" y1="0" x2="340" y2="1200" /><line x1="530" y1="0" x2="530" y2="1200" /><line x1="720" y1="0" x2="720" y2="1200" /><line x1="910" y1="0" x2="910" y2="1200" /><line x1="1100" y1="0" x2="1100" y2="1200" /><line x1="1290" y1="0" x2="1290" y2="1200" /><line x1="1480" y1="0" x2="1480" y2="1200" /></g>
  
    <g opacity="0.2" stroke="#3b82f6" fill="none" stroke-width="2">
      <line x1="800" y1="520" x2="420" y2="300"/>
      <line x1="800" y1="520" x2="360" y2="610"/>
      <line x1="800" y1="520" x2="530" y2="830"/>
      <line x1="800" y1="520" x2="1080" y2="335"/>
      <line x1="800" y1="520" x2="1240" y2="610"/>
      <line x1="800" y1="520" x2="1060" y2="840"/>
    </g>
    <g filter="url(#glow)">
      <circle cx="420" cy="300" r="18" fill="#07111f" stroke="#3b82f6" stroke-width="1.5"/>
      <circle cx="360" cy="610" r="15" fill="#07111f" stroke="#3b82f6" stroke-width="1.5"/>
      <circle cx="530" cy="830" r="16" fill="#07111f" stroke="#3b82f6" stroke-width="1.5"/>
      <circle cx="1080" cy="335" r="16" fill="#07111f" stroke="#3b82f6" stroke-width="1.5"/>
      <circle cx="1240" cy="610" r="15" fill="#07111f" stroke="#3b82f6" stroke-width="1.5"/>
      <circle cx="1060" cy="840" r="14" fill="#07111f" stroke="#3b82f6" stroke-width="1.5"/>
    </g>
    <g filter="url(#glow)">
      <circle cx="800" cy="520" r="34" fill="#07111f" stroke="#3b82f6" stroke-width="2"/>
      <circle cx="800" cy="520" r="11" fill="#3b82f6" opacity="0.45"/>
      <circle cx="800" cy="520" r="70" fill="none" stroke="#3b82f6" stroke-width="0.6" opacity="0.28"/>
    </g>
  <g opacity="0.065" fill="#3b82f6" font-family="ui-monospace, SFMono-Regular, Menlo, monospace" font-size="18" letter-spacing="4">
    <text x="80" y="1080">AGENT NETWORK</text>
    <text x="80" y="1112">MULA GROUP OPERATING SYSTEM</text>
  </g>
</svg>