<svg xmlns="http://www.w3.org/2000/svg" viewBox="0 0 1600 1200" width="1600" height="1200">
  <defs>
    <radialGradient id="bg" cx="50%" cy="35%" r="75%">
      <stop offset="0%" stop-color="#101927"/>
      <stop offset="58%" stop-color="#06101d"/>
      <stop offset="100%" stop-color="#020509"/>
    </radialGradient>
    <radialGradient id="accent" cx="50%" cy="42%" r="38%">
      <stop offset="0%" stop-color="#8b5cf6" stop-opacity="0.2"/>
      <stop offset="100%" stop-color="#8b5cf6" stop-opacity="0"/>
    </radialGradient>
    <filter id="glow"><feGaussianBlur stdDeviation="3" result="blur"/><feMerge><feMergeNode in="blur"/><feMergeNode in="SourceGraphic"/></feMerge></filter>
  </defs>
  <rect width="1600" height="1200" fill="url(#bg)"/>
  <rect width="1600" height="1200" fill="url(#accent)"/>
  <g opacity="0.045" stroke="#8b5cf6" stroke-width="0.75"><line x1="0" y1="120" x2="1600" y2="120" /><line x1="0" y1="255" x2="1600" y2="255" /><line x1="0" y1="390" x2="1600" y2="390" /><line x1="0" y1="525" x2="1600" y2="525" /><line x1="0" y1="660" x2="1600" y2="660" /><line x1="0" y1="795" x2="1600" y2="795" /><line x1="0" y1="930" x2="1600" y2="930" /><line x1="0" y1="1065" x2="1600" y2="1065" /><line x1="150" y1="0" x2="150" y2="1200" /><line x1="340" y1="0" x2="340" y2="1200" /><line x1="530" y1="0" x2="530" y2="1200" /><line x1="720" y1="0" x2="720" y2="1200" /><line x1="910" y1="0" x2="910" y2="1200" /><line x1="1100" y1="0" x2="1100" y2="1200" /><line x1="1290" y1="0" x2="1290" y2="1200" /><line x1="1480" y1="0" x2="1480" y2="1200" /></g>
  
      <g opacity="0.22" stroke="#8b5cf6" fill="none" stroke-width="2">
        <path d="M270 720 C470 440 620 380 800 520 C980 660 1110 650 1340 420"/>
        <path d="M320 860 C520 650 640 620 800 720 C960 820 1120 780 1280 620" opacity="0.55"/>
        <rect x="510" y="380" width="160" height="90" rx="20" opacity="0.5"/>
        <rect x="930" y="610" width="160" height="90" rx="20" opacity="0.5"/>
      </g>
    <g filter="url(#glow)">
      <circle cx="800" cy="520" r="34" fill="#07111f" stroke="#8b5cf6" stroke-width="2"/>
      <circle cx="800" cy="520" r="11" fill="#8b5cf6" opacity="0.45"/>
      <circle cx="800" cy="520" r="70" fill="none" stroke="#8b5cf6" stroke-width="0.6" opacity="0.28"/>
    </g>
  <g opacity="0.065" fill="#8b5cf6" font-family="ui-monospace, SFMono-Regular, Menlo, monospace" font-size="18" letter-spacing="4">
    <text x="80" y="1080">WORKFLOW MAP</text>
    <text x="80" y="1112">MULA GROUP OPERATING SYSTEM</text>
  </g>
</svg>