<svg xmlns="http://www.w3.org/2000/svg" viewBox="0 0 1600 1200" width="1600" height="1200">
  <defs>
    <radialGradient id="bg" cx="50%" cy="40%" r="70%">
      <stop offset="0%" stop-color="#0a1628"/>
      <stop offset="60%" stop-color="#050d17"/>
      <stop offset="100%" stop-color="#020508"/>
    </radialGradient>
    <radialGradient id="glow1" cx="45%" cy="35%" r="30%">
      <stop offset="0%" stop-color="#3b82f620"/>
      <stop offset="100%" stop-color="transparent"/>
    </radialGradient>
    <radialGradient id="glow2" cx="65%" cy="55%" r="25%">
      <stop offset="0%" stop-color="#60a5fa15"/>
      <stop offset="100%" stop-color="transparent"/>
    </radialGradient>
    <radialGradient id="coreGlow" cx="50%" cy="50%" r="50%">
      <stop offset="0%" stop-color="#60a5fa80" stop-opacity="0.5"/>
      <stop offset="100%" stop-color="#3b82f600"/>
    </radialGradient>
    <filter id="glow">
      <feGaussianBlur stdDeviation="2" result="blur"/>
      <feMerge><feMergeNode in="blur"/><feMergeNode in="SourceGraphic"/></feMerge>
    </filter>
    <filter id="softGlow">
      <feGaussianBlur stdDeviation="10"/>
    </filter>
  </defs>

  <rect width="1600" height="1200" fill="url(#bg)"/>
  <rect width="1600" height="1200" fill="url(#glow1)"/>
  <rect width="1600" height="1200" fill="url(#glow2)"/>

  <g opacity="0.05" stroke="#3b82f6" stroke-width="0.5">
    <line x1="0" y1="150" x2="1600" y2="150"/>
    <line x1="0" y1="300" x2="1600" y2="300"/>
    <line x1="0" y1="450" x2="1600" y2="450"/>
    <line x1="0" y1="600" x2="1600" y2="600"/>
    <line x1="0" y1="750" x2="1600" y2="750"/>
    <line x1="0" y1="900" x2="1600" y2="900"/>
    <line x1="0" y1="1050" x2="1600" y2="1050"/>
    <line x1="200" y1="0" x2="200" y2="1200"/>
    <line x1="400" y1="0" x2="400" y2="1200"/>
    <line x1="600" y1="0" x2="600" y2="1200"/>
    <line x1="800" y1="0" x2="800" y2="1200"/>
    <line x1="1000" y1="0" x2="1000" y2="1200"/>
    <line x1="1200" y1="0" x2="1200" y2="1200"/>
    <line x1="1400" y1="0" x2="1400" y2="1200"/>
  </g>

  <g opacity="0.12" stroke="#3b82f6" stroke-width="0.8" fill="none">
    <line x1="750" y1="520" x2="400" y2="280"/>
    <line x1="750" y1="520" x2="330" y2="580"/>
    <line x1="750" y1="520" x2="480" y2="780"/>
    <line x1="750" y1="520" x2="720" y2="860"/>
    <line x1="750" y1="520" x2="1020" y2="360"/>
    <line x1="750" y1="520" x2="1120" y2="590"/>
    <line x1="750" y1="520" x2="1060" y2="760"/>
    <line x1="750" y1="520" x2="960" y2="910"/>
  </g>

  <g filter="url(#glow)">
    <circle cx="400" cy="280" r="16" fill="#0d1f3c" stroke="#3b82f6" stroke-width="1.5"/>
    <circle cx="400" cy="280" r="5" fill="#3b82f6" opacity="0.8"/>
    <circle cx="1020" cy="360" r="13" fill="#0d1f3c" stroke="#60a5fa" stroke-width="1.5"/>
    <circle cx="1020" cy="360" r="4" fill="#60a5fa" opacity="0.7"/>
    <circle cx="330" cy="580" r="15" fill="#0d1f3c" stroke="#3b82f6" stroke-width="1.5"/>
    <circle cx="330" cy="580" r="5" fill="#3b82f6" opacity="0.7"/>
    <circle cx="1120" cy="590" r="11" fill="#0d1f3c" stroke="#2563eb" stroke-width="1.5"/>
    <circle cx="1120" cy="590" r="4" fill="#2563eb" opacity="0.7"/>
    <circle cx="480" cy="780" r="14" fill="#0d1f3c" stroke="#3b82f6" stroke-width="1.5"/>
    <circle cx="480" cy="780" r="5" fill="#3b82f6" opacity="0.7"/>
    <circle cx="1060" cy="760" r="12" fill="#0d1f3c" stroke="#60a5fa" stroke-width="1.5"/>
    <circle cx="1060" cy="760" r="4" fill="#60a5fa" opacity="0.7"/>
    <circle cx="720" cy="860" r="13" fill="#0d1f3c" stroke="#3b82f6" stroke-width="1.5"/>
    <circle cx="720" cy="860" r="4" fill="#3b82f6" opacity="0.7"/>
    <circle cx="960" cy="910" r="11" fill="#0d1f3c" stroke="#2563eb" stroke-width="1.5"/>
    <circle cx="960" cy="910" r="4" fill="#2563eb" opacity="0.6"/>
  </g>

  <g filter="url(#softGlow)">
    <circle cx="750" cy="520" r="70" fill="#3b82f608"/>
  </g>
  <g filter="url(#glow)">
    <circle cx="750" cy="520" r="28" fill="#0d1f3c" stroke="#3b82f6" stroke-width="2"/>
    <circle cx="750" cy="520" r="10" fill="#3b82f6" opacity="0.35"/>
    <circle cx="750" cy="520" r="42" fill="none" stroke="#3b82f6" stroke-width="0.5" opacity="0.2"/>
    <circle cx="750" cy="520" r="62" fill="none" stroke="#3b82f6" stroke-width="0.3" opacity="0.12"/>
  </g>

  <g opacity="0.06">
    <rect x="180" y="1040" width="1240" height="2.5" rx="1" fill="#3b82f6"/>
    <rect x="230" y="1055" width="1140" height="2" rx="1" fill="#3b82f6"/>
    <rect x="280" y="1070" width="1040" height="1.5" rx="1" fill="#3b82f6"/>
    <rect x="330" y="1085" width="940" height="1" rx="1" fill="#3b82f6"/>
    <rect x="380" y="1100" width="840" height="0.8" rx="1" fill="#3b82f6"/>
  </g>
</svg>
